#!OML:ASF H:\Not Pregnant\Project 1\Capture day 1\Session 1\non-pregnant.ASF
:FULLY-SPECIFIED
:DEGREES
265
root -3.70888 16.4867 34.5044 -173.398 -80.4257 -150.537
lowerback 8.66054 2.9157 4.48119
upperback 6.2717 3.82259 1.423
thorax 1.87534 1.89443 -1.29149
lowerneck 20.3451 -4.94084 -32.1646
upperneck 18.4587 -18.7979 34.7617
head 9.25417 -11.8261 20.2342
rclavicle 4.92986e-014 -2.78299e-014
rhumerus -31.8978 77.0079 -111.164
rradius 95.2864
rwrist -26.1066
rhand -7.51891 -5.66616
rfingers 7.12502
rthumb 18.3717 -34.8186
lclavicle 4.92986e-014 -2.78299e-014
lhumerus -96.4714 -31.3504 157.079
lradius 87.7383
lwrist 104.274
lhand 5.44436 -8.4016
lfingers 7.12502
lthumb 30.7937 19.039
rfemur -48.5626 -19.1673 43.8106
rtibia 8.7113
rfoot -1.98513 39.246
rtoes 1.7891
lfemur -47.0899 6.46309 -15.5419
ltibia 10.8671
lfoot -1.06431 -2.93879
ltoes -18.7596
266
root -3.73667 16.491 34.498 -172.27 -80.3062 -152.373
lowerback 8.28504 2.90275 4.13463
upperback 6.18764 3.78337 1.33891
thorax 1.97032 1.87248 -1.1667
lowerneck 20.3226 -4.93346 -32.1669
upperneck 18.3347 -18.8086 34.8215
head 9.22528 -11.8459 20.253
rclavicle -3.73715e-014 -2.50469e-014
rhumerus -31.0745 76.9378 -110.577
rradius 95.0727
rwrist -25.7973
rhand -9.9587 -4.70303
rfingers 7.12502
rthumb 16.0234 -34.0604
lclavicle -3.73715e-014 -2.50469e-014
lhumerus -96.2912 -30.8342 156.567
lradius 88.0651
lwrist 103.907
lhand 5.18492 -8.40636
lfingers 7.12502
lthumb 30.5463 19.0806
rfemur -48.22 -20.0527 43.6892
rtibia 9.18867
rfoot -1.52691 40.0399
rtoes 3.53732
lfemur -46.029 6.51483 -15.8357
ltibia 10.5948
lfoot -1.15603 -2.97554
ltoes -18.7369
267
root -3.76505 16.493 34.4915 -171.158 -80.1895 -154.179
lowerback 7.8992 2.88822 3.78585
upperback 6.10047 3.74424 1.25398
thorax 2.06874 1.85035 -1.04122
lowerneck 20.3059 -4.93165 -32.1718
upperneck 18.1893 -18.826 34.8965
head 9.1941 -11.8698 20.2802
rclavicle -4.05521e-014 -2.5842e-014
rhumerus -30.0826 76.7585 -109.95
rradius 94.8
rwrist -25.3245
rhand -12.0547 -4.06086
rfingers 7.12502
rthumb 14.0043 -33.5691
lclavicle -4.05521e-014 -2.5842e-014
lhumerus -96.1297 -30.3141 156.065
lradius 88.41
lwrist 103.554
lhand 4.69539 -8.39896
lfingers 7.12502
lthumb 30.0794 19.1739
rfemur -47.9094 -20.9548 43.549
rtibia 9.69848
rfoot -1.00297 40.8378
rtoes 5.35441
lfemur -44.9806 6.56261 -16.129
ltibia 10.3148
lfoot -1.24014 -3.01188
ltoes -18.7101
268
root -3.7936 16.496 34.4865 -170.005 -80.088 -156.01
lowerback 7.49982 2.86883 3.43629
upperback 6.01082 3.70096 1.16844
thorax 2.17296 1.82599 -0.915208
lowerneck 20.292 -4.94407 -32.1617
upperneck 18.0207 -18.8537 34.9718
head 9.15668 -11.8959 20.2974
rclavicle -4.13472e-014 -1.98785e-014
rhumerus -29.0186 76.5735 -109.206
rradius 94.5372
rwrist -24.7233
rhand -13.4911 -3.9129
rfingers 7.12502
rthumb 12.6198 -33.5117
lclavicle -4.13472e-014 -1.98785e-014
lhumerus -95.9873 -29.7968 155.578
lradius 88.7697
lwrist 103.214
lhand 4.07788 -8.39151
lfingers 7.12502
lthumb 29.4901 19.2869
rfemur -47.6394 -21.8881 43.3831
rtibia 10.2421
rfoot -0.445754 41.6362
rtoes 7.15901
lfemur -43.9489 6.58631 -16.4343
ltibia 10.0285
lfoot -1.31796 -3.04742
ltoes -18.7172
269
root -3.82208 16.4988 34.4848 -168.797 -80.0072 -157.89
lowerback 7.10511 2.8357 3.119
upperback 5.91369 3.64449 1.07314
thorax 2.27043 1.79597 -0.817194
lowerneck 20.2865 -4.95908 -32.1494
upperneck 17.8415 -18.8831 35.0458
head 9.11405 -11.9223 20.3112
rclavicle -1.86858e-014 1.23246e-014
rhumerus -27.9811 76.3703 -108.419
rradius 94.3141
rwrist -23.9727
rhand -13.8759 -4.2783
rfingers 7.12502
rthumb 12.2487 -33.8996
lclavicle -1.86858e-014 1.23246e-014
lhumerus -95.8663 -29.269 155.098
lradius 89.1422
lwrist 102.88
lhand 3.48932 -8.38764
lfingers 7.12502
lthumb 28.928 19.3885
rfemur -47.7499 -23.5968 44.0506
rtibia 10.8295
rfoot 0.131284 43.5016
rtoes 8.94421
lfemur -42.9089 6.49251 -16.6805
ltibia 9.72337
lfoot -1.36495 -2.97114
ltoes -18.7345
270
root -3.85049 16.5016 34.4857 -167.582 -79.9444 -159.769
lowerback 6.72695 2.81532 2.9186
upperback 5.80433 3.61439 0.922855
thorax 2.35982 1.78384 -0.84294
lowerneck 20.3125 -4.99824 -32.0897
upperneck 17.6378 -18.9481 35.1571
head 9.07461 -11.9674 20.3345
rclavicle -4.37326e-014 -5.96354e-015
rhumerus -26.8844 76.072 -107.468
rradius 94.1539
rwrist -23.0728
rhand -13.7288 -4.77317
rfingers 7.12502
rthumb 12.3906 -34.386
lclavicle -4.37326e-014 -5.96354e-015
lhumerus -95.8999 -28.7955 154.66
lradius 89.5333
lwrist 102.556
lhand 2.99987 -8.42409
lfingers 7.12502
lthumb 28.4604 19.4312
rfemur -47.0795 -23.2346 42.6604
rtibia 11.4273
rfoot 0.797829 42.5585
rtoes 10.7378
lfemur -41.855 6.36891 -16.9372
ltibia 9.36776
lfoot -1.38429 -2.89792
ltoes -18.7568
271
root -3.87904 16.5044 34.4889 -166.271 -79.8887 -161.728
lowerback 6.34598 2.79783 2.75401
upperback 5.68348 3.59196 0.751739
thorax 2.44351 1.77699 -0.910491
lowerneck 20.3551 -5.0447 -32.0166
upperneck 17.4222 -19.0254 35.2813
head 9.03448 -12.0198 20.3619
rclavicle 3.77691e-014 1.03368e-014
rhumerus -25.8265 75.778 -106.427
rradius 94.04
rwrist -22.0215
rhand -13.2173 -5.18277
rfingers 7.12502
rthumb 12.8837 -34.7651
lclavicle 3.77691e-014 1.03368e-014
lhumerus -95.9801 -28.334 154.237
lradius 89.915
lwrist 102.212
lhand 2.63584 -8.47693
lfingers 7.12502
lthumb 28.1125 19.436
rfemur -46.5244 -23.038 41.4301
rtibia 12.0711
rfoot 1.46017 41.8404
rtoes 12.5988
lfemur -40.8018 6.22249 -17.2219
ltibia 8.97459
lfoot -1.38375 -2.82526
ltoes -18.8275
272
root -3.90761 16.5067 34.4929 -164.977 -79.8328 -163.656
lowerback 5.97218 2.77736 2.61631
upperback 5.54818 3.56874 0.573162
thorax 2.51095 1.77044 -1.00146
lowerneck 20.4122 -5.08596 -31.9604
upperneck 17.2023 -19.1024 35.4099
head 8.99369 -12.0754 20.3983
rclavicle -1.59028e-014 -5.96354e-015
rhumerus -24.86 75.5003 -105.362
rradius 93.9825
rwrist -20.8254
rhand -13.0528 -5.33365
rfingers 7.12502
rthumb 13.0423 -34.9059
lclavicle -1.59028e-014 -5.96354e-015
lhumerus -96.0692 -27.8602 153.806
lradius 90.2766
lwrist 101.818
lhand 2.42808 -8.37756
lfingers 7.12502
lthumb 27.9139 19.5678
rfemur -46.0443 -22.9829 40.3561
rtibia 12.7304
rfoot 2.09404 41.3241
rtoes 14.4298
lfemur -39.7565 6.07078 -17.509
ltibia 8.56849
lfoot -1.3706 -2.7551
ltoes -18.8885
273
root -3.93723 16.5081 34.4967 -163.338 -79.7613 -165.883
lowerback 5.55691 2.75748 2.41308
upperback 5.38771 3.54621 0.383297
thorax 2.57202 1.76258 -1.0664
lowerneck 20.4862 -5.11738 -31.929
upperneck 16.9782 -19.173 35.5364
head 8.94863 -12.1313 20.442
rclavicle 4.13472e-014 1.39149e-014
rhumerus -23.9247 75.1956 -104.312
rradius 93.8969
rwrist -19.4883
rhand -13.8572 -4.85845
rfingers 7.12502
rthumb 12.2668 -34.4787
lclavicle 4.13472e-014 1.39149e-014
lhumerus -96.1518 -27.3607 153.372
lradius 90.609
lwrist 101.351
lhand 2.22147 -8.12195
lfingers 7.12502
lthumb 27.7164 19.8554
rfemur -45.6625 -23.0109 39.3397
rtibia 13.3973
rfoot 2.70568 40.9427
rtoes 16.1913
lfemur -38.7628 5.91341 -17.8718
ltibia 8.15856
lfoot -1.35465 -2.68855
ltoes -18.9822
274
root -3.96693 16.5075 34.4977 -161.9 -79.6771 -167.899
lowerback 5.14303 2.75067 2.20594
upperback 5.21577 3.5422 0.205972
thorax 2.62067 1.76315 -1.11718
lowerneck 20.5774 -5.14993 -31.8979
upperneck 16.7447 -19.2457 35.6589
head 8.89731 -12.189 20.4819
rclavicle -9.14409e-015 3.97569e-016
rhumerus -22.9897 74.8487 -103.222
rradius 93.8353
rwrist -18.0639
rhand -14.5116 -4.37213
rfingers 7.12502
rthumb 11.6357 -34.0291
lclavicle -9.14409e-015 3.97569e-016
lhumerus -96.2563 -26.8587 152.935
lradius 90.9173
lwrist 100.817
lhand 2.1488 -7.59312
lfingers 7.12502
lthumb 27.6469 20.3953
rfemur -45.2803 -23.0374 38.4035
rtibia 14.0506
rfoot 3.18994 40.61
rtoes 17.7335
lfemur -37.7977 5.7783 -18.1947
ltibia 7.78198
lfoot -1.34706 -2.62145
ltoes -19.1273
275
root -3.99647 16.5061 34.4982 -160.472 -79.5846 -169.898
lowerback 4.74148 2.74375 1.98567
upperback 5.02941 3.53943 0.0351044
thorax 2.64683 1.76336 -1.15507
lowerneck 20.6768 -5.17136 -31.8762
upperneck 16.5104 -19.3019 35.7677
head 8.83464 -12.2383 20.5164
rclavicle -7.95139e-015 -2.66371e-014
rhumerus -22.133 74.3435 -102.326
rradius 93.7112
rwrist -16.5493
rhand -14.9217 -3.92163
rfingers 7.12502
rthumb 11.2403 -33.6005
lclavicle -7.95139e-015 -2.66371e-014
lhumerus -96.3577 -26.3402 152.484
lradius 91.2003
lwrist 100.22
lhand 2.13257 -7.02086
lfingers 7.12502
lthumb 27.6314 20.9701
rfemur -44.9027 -23.1225 37.5313
rtibia 14.6604
rfoot 3.67862 40.3664
rtoes 19.2198
lfemur -36.8204 5.64549 -18.523
ltibia 7.36291
lfoot -1.31651 -2.5588
ltoes -19.284
276
root -4.02592 16.5034 34.4972 -159.28 -79.4944 -171.651
lowerback 4.34738 2.75089 1.79487
upperback 4.83612 3.55687 -0.127115
thorax 2.66436 1.77402 -1.20123
lowerneck 20.7805 -5.20124 -31.8219
upperneck 16.2629 -19.3576 35.8714
head 8.76003 -12.2833 20.5347
rclavicle -4.57205e-014 1.94809e-014
rhumerus -21.3173 73.7519 -101.447
rradius 93.611
rwrist -15.0956
rhand -15.2355 -3.4648
rfingers 7.12502
rthumb 10.9376 -33.1599
lclavicle -4.57205e-014 1.94809e-014
lhumerus -96.5064 -25.8477 152.03
lradius 91.4735
lwrist 99.5744
lhand 2.15625 -6.49454
lfingers 7.12502
lthumb 27.654 21.4928
rfemur -44.4855 -23.2079 36.7228
rtibia 15.1875
rfoot 4.22414 40.1366
rtoes 20.7221
lfemur -35.8565 5.52405 -18.808
ltibia 6.94927
lfoot -1.2849 -2.49968
ltoes -19.4773
277
root -4.05465 16.5042 34.4949 -158.455 -79.4151 -173.04
lowerback 3.96627 2.74804 1.62559
upperback 4.64548 3.56095 -0.247059
thorax 2.67607 1.77739 -1.21623
lowerneck 20.8454 -5.22095 -31.7882
upperneck 16.0258 -19.3866 35.9487
head 8.68149 -12.3105 20.5403
rclavicle 7.31528e-014 1.35174e-014
rhumerus -20.5723 73.1823 -100.587
rradius 93.5633
rwrist -13.8028
rhand -15.436 -3.01322
rfingers 7.12502
rthumb 10.7442 -32.7185
lclavicle 7.31528e-014 1.35174e-014
lhumerus -96.6076 -25.3436 151.531
lradius 91.7342
lwrist 98.8793
lhand 2.15211 -6.01733
lfingers 7.12502
lthumb 27.6501 21.9706
rfemur -43.7895 -23.0285 35.8283
rtibia 15.6211
rfoot 2.76963 39.784
rtoes 19.2783
lfemur -34.8877 5.41808 -19.0225
ltibia 6.52958
lfoot -1.24637 -2.44293
ltoes -19.6545
